<?xml version="1.0" encoding="UTF-8" standalone="no"?><!DOCTYPE svg PUBLIC "-//W3C//DTD SVG 1.1//EN" "http://www.w3.org/Graphics/SVG/1.1/DTD/svg11.dtd"><svg width="100%" height="100%" viewBox="0 0 996 200" version="1.1" xmlns="http://www.w3.org/2000/svg" xmlns:xlink="http://www.w3.org/1999/xlink" xml:space="preserve" xmlns:serif="http://www.serif.com/" style="fill-rule:evenodd;clip-rule:evenodd;stroke-linejoin:round;stroke-miterlimit:2;"><g><path d="M995.833,40l0,120c0,22.077 -17.923,40 -40,40l-915.833,0c-22.077,0 -40,-17.923 -40,-40l0,-120c0,-22.077 17.923,-40 40,-40l915.833,0c22.077,0 40,17.923 40,40Z" style="fill:url(#_Linear1);"/><g><path d="M603.574,116.869c0,6.932 -3.293,12.07 -9.867,15.399c-5.07,2.575 -11.449,3.859 -19.143,3.859l-55.993,0c-3.086,0 -4.632,-1.564 -4.632,-4.699l0,-63.066c0,-3.092 1.546,-4.638 4.632,-4.638l55.226,0c4.949,0 9.465,0.396 13.55,1.187c4.406,1.071 8.119,3.031 11.175,5.886c3.372,3.208 5.058,6.933 5.058,11.176c0,4.242 -0.158,7.091 -0.481,8.917c-0.079,0.359 -0.334,0.949 -0.773,1.777c-0.438,0.84 -1.028,1.887 -1.783,3.153c-1.467,2.538 -2.197,3.944 -2.197,4.218c-0,0.201 0.73,1.449 2.197,3.75c0.755,1.144 1.351,2.118 1.783,2.909c0.439,0.798 0.694,1.413 0.773,1.845c0.159,0.633 0.28,1.637 0.359,3.001c0.08,1.363 0.122,3.14 0.122,5.319m-13.208,-3.682c-0,-4.997 -5.454,-7.493 -16.356,-7.493l-46.887,-0l0,19.563l45.993,0c10.67,0 16.379,-2.282 17.134,-6.842c0.043,-0.237 0.067,-0.785 0.091,-1.661c0.019,-0.871 0.031,-2.064 0.031,-3.567m0.359,-25.084c-0,-1.309 -0.122,-3.33 -0.359,-6.063c-0.396,-5.033 -6.105,-7.547 -17.135,-7.547l-45.809,-0l-0,20.324l46.345,-0c11.309,-0 16.958,-2.234 16.958,-6.714" style="fill:#fff;fill-rule:nonzero;"/><path d="M686.209,130.54c0,3.573 -1.491,5.362 -4.486,5.362l-61.629,0c-2.66,0 -4.894,-0.517 -6.708,-1.57c-2.289,-1.279 -3.427,-3.19 -3.427,-5.716c0,-1.631 0.645,-3.031 1.936,-4.194l62.621,-56.023c1.814,-1.674 3.75,-2.508 5.813,-2.508c0.779,0 1.504,0.128 2.186,0.378c0.687,0.249 1.296,0.614 1.832,1.083c0.535,0.469 0.955,1.016 1.266,1.662c0.316,0.639 0.474,1.351 0.474,2.13c0,1.82 -0.833,3.457 -2.489,4.9l-55.263,49.206l53.376,0c2.995,0 4.486,1.765 4.486,5.308" style="fill:#fff;fill-rule:nonzero;"/><path d="M682.113,65.002l-49.547,0c-0,0 -11.072,-0.706 -14.603,-0.103c-1.57,0.274 -2.179,1.85 -2.179,3.488c0,2.526 0.226,5.569 2.319,6.854c1.65,1.046 4.505,0.432 6.927,0.432l57.083,-0c2.733,-0 4.09,-1.79 4.09,-5.363c0,-3.573 -2.185,-5.308 -4.924,-5.308" style="fill:#fff;fill-rule:nonzero;"/><path d="M780.902,90.561c0,7.225 -3.603,12.429 -10.785,15.625c-5.57,2.325 -12.284,3.482 -20.136,3.476l-45.657,-0.031l-0.019,21.079c0,2.246 -0.943,3.67 -2.842,4.261c-0.511,0.274 -2.411,0.414 -5.685,0.408c-3.08,-0 -4.62,-1.565 -4.62,-4.681l0.049,-62.835c-0,-3.08 1.54,-4.62 4.619,-4.614l54.782,0.043c7.42,0 13.714,1.035 18.888,3.092c7.614,2.849 11.425,7.177 11.419,12.977l-0.013,11.194l0,0.006Zm-13.019,-0.469l-0,-9.805c0.006,-4.176 -5.716,-6.27 -17.165,-6.282l-46.364,-0.031l-0.018,24.817l46.43,0.03c11.407,0.006 17.117,-2.903 17.123,-8.735" style="fill:#fff;fill-rule:nonzero;"/><path d="M865.26,130.588c0,1.814 -0.615,3.336 -1.838,4.559c-1.23,1.224 -2.745,1.832 -4.565,1.832c-2.526,0 -4.578,-1.193 -6.154,-3.56l-11.65,-16.94l-55.433,-0.049l-11.681,16.934c-1.266,1.856 -2.623,2.782 -4.084,2.782c-1.461,-0 -2.861,-0.475 -4.206,-1.425c-1.498,-1.028 -2.252,-2.234 -2.246,-3.615c-0,-0.432 0.115,-0.828 0.353,-1.181l41.622,-63.51c1.698,-2.606 4.613,-3.908 8.765,-3.902c3.08,-0 5.131,0.87 6.154,2.611c0.079,0.122 0.17,0.292 0.267,0.505c0.098,0.22 0.25,0.487 0.439,0.804l44.014,62.384c0.158,0.274 0.237,0.87 0.237,1.777m-31.889,-24.962l-19.934,-29.448l-20.099,29.418l40.033,0.03Z" style="fill:#fff;fill-rule:nonzero;"/><path d="M924.406,67.267c0,1.381 -0.712,2.745 -2.136,4.084l-35.499,34.026l-0.134,25.461c-0.085,2.331 -1.016,3.749 -2.8,4.261c-0.517,0.274 -2.404,0.414 -5.654,0.407c-3.135,0 -4.7,-1.54 -4.7,-4.619l0.019,-25.523l-35.566,-34.074c-1.345,-1.309 -2.015,-2.648 -2.015,-4.029c0,-2.606 1.766,-3.908 5.278,-3.908c3.987,-0 6.415,0.438 7.28,1.309l31.566,30.288l31.737,-30.246c0.87,-0.87 3.299,-1.302 7.28,-1.296c3.555,-0 5.326,1.284 5.326,3.853" style="fill:#fff;fill-rule:nonzero;"/><path d="M913.383,112.236c1.546,0 3.043,0.305 4.455,0.901c1.364,0.579 2.587,1.4 3.64,2.453c1.053,1.053 1.875,2.277 2.453,3.64c0.597,1.412 0.901,2.91 0.901,4.456c0,1.546 -0.304,3.043 -0.901,4.455c-0.578,1.364 -1.4,2.587 -2.453,3.64c-1.053,1.053 -2.276,1.881 -3.64,2.453c-1.412,0.597 -2.909,0.901 -4.455,0.901c-1.546,0 -3.044,-0.304 -4.456,-0.901c-1.363,-0.572 -2.587,-1.4 -3.64,-2.453c-1.053,-1.053 -1.874,-2.276 -2.453,-3.64c-0.596,-1.412 -0.901,-2.909 -0.901,-4.455c0,-1.546 0.305,-3.044 0.901,-4.456c0.579,-1.363 1.4,-2.587 2.453,-3.64c1.053,-1.053 2.277,-1.881 3.64,-2.453c1.412,-0.596 2.91,-0.901 4.456,-0.901m-0,-1.606c-7.213,-0 -13.057,5.843 -13.057,13.056c0,7.213 5.85,13.056 13.057,13.056c7.207,0 13.056,-5.843 13.056,-13.056c0,-7.213 -5.849,-13.056 -13.056,-13.056" style="fill:#fff;fill-rule:nonzero;"/><path d="M916.724,129.907l2.052,-0l-0.591,-0.743l-3.226,-4.066c2.106,-0 3.817,-1.71 3.817,-3.817c-0,-2.106 -1.711,-3.816 -3.817,-3.816l-6.227,0l0,12.454l1.607,-0l0,-4.821l2.569,-0l3.823,4.809l-0.007,-0Zm-6.385,-10.841l4.62,-0c1.218,-0 2.21,0.992 2.21,2.209c-0,1.218 -0.992,2.21 -2.21,2.21l-4.62,-0l0,-4.419Z" style="fill:#fff;fill-rule:nonzero;"/></g><g><rect id="Artboard1" x="397.439" y="36.444" width="91.653" height="126.451" style="fill:none;"/><path d="M409.482,135.969l-10.492,7.217l-0.633,-105.74l79.312,51.617l-8.964,6.167l-59.699,-38.854l0.476,79.593Z" style="fill:#fff;"/><path d="M487.799,109.229l-77.46,-50.412l0.618,103.271l76.842,-52.859Z" style="fill:#fff;"/></g><g transform="matrix(61.0164,0,0,61.0164,358.184,118.281)"></g><text x="44.926px" y="118.281px" style="font-family:'Poppins-Regular', 'Poppins';font-size:61.016px;fill:#fff;">Pagar con</text></g><defs><linearGradient id="_Linear1" x1="0" y1="0" x2="1" y2="0" gradientUnits="userSpaceOnUse" gradientTransform="matrix(995.833,0,0,200,0,100)"><stop offset="0" style="stop-color:#6d398c;stop-opacity:1"/><stop offset="1" style="stop-color:#e74f2c;stop-opacity:1"/></linearGradient></defs></svg>