<?xml version="1.0" encoding="UTF-8" standalone="no"?><!DOCTYPE svg PUBLIC "-//W3C//DTD SVG 1.1//EN" "http://www.w3.org/Graphics/SVG/1.1/DTD/svg11.dtd"><svg width="100%" height="100%" viewBox="0 0 1317 287" version="1.1" xmlns="http://www.w3.org/2000/svg" xmlns:xlink="http://www.w3.org/1999/xlink" xml:space="preserve" xmlns:serif="http://www.serif.com/" style="fill-rule:evenodd;clip-rule:evenodd;stroke-linejoin:round;stroke-miterlimit:2;"><rect id="Artboard1" x="0" y="-0" width="1316.52" height="286.744" style="fill:none;"/><g><path d="M349.35,126.813c-0,11.958 -5.709,20.833 -17.042,26.583c-8.75,4.459 -19.792,6.667 -33.083,6.667l-96.75,-0c-5.334,-0 -8,-2.708 -8,-8.125l-0,-108.958c-0,-5.334 2.666,-8 8,-8l95.416,-0c8.542,-0 16.334,0.666 23.417,2.041c7.625,1.834 14.042,5.25 19.292,10.167c5.833,5.542 8.75,12 8.75,19.292c-0,7.291 -0.292,12.25 -0.834,15.416c-0.125,0.625 -0.583,1.625 -1.333,3.084c-0.75,1.458 -1.792,3.25 -3.083,5.458c-2.542,4.375 -3.792,6.833 -3.792,7.292c-0,0.333 1.25,2.5 3.792,6.458c1.291,2 2.333,3.667 3.083,5.042c0.75,1.375 1.208,2.416 1.333,3.166c0.292,1.084 0.5,2.834 0.625,5.209c0.125,2.375 0.209,5.416 0.209,9.208m-22.792,-6.375c-0,-8.625 -9.417,-12.958 -28.25,-12.958l-81,-0l-0,33.791l79.458,0c18.417,0 28.292,-3.958 29.584,-11.833c0.083,-0.417 0.125,-1.375 0.166,-2.875c0,-1.5 0.042,-3.542 0.042,-6.167m0.625,-43.333c-0,-2.25 -0.208,-5.75 -0.625,-10.458c-0.667,-8.709 -10.542,-13.042 -29.583,-13.042l-79.125,-0l-0,35.125l80.083,-0c19.542,-0 29.292,-3.875 29.292,-11.583" style="fill:#20235c;fill-rule:nonzero;"/><path d="M492.141,150.396c0,6.167 -2.583,9.25 -7.75,9.25l-106.458,0c-4.583,0 -8.458,-0.916 -11.583,-2.708c-3.959,-2.208 -5.917,-5.5 -5.917,-9.875c-0,-2.833 1.125,-5.25 3.333,-7.25l108.209,-96.792c3.125,-2.875 6.5,-4.333 10.041,-4.333c1.334,-0 2.584,0.208 3.792,0.667c1.167,0.416 2.25,1.041 3.167,1.875c0.916,0.791 1.666,1.75 2.208,2.875c0.542,1.083 0.833,2.333 0.833,3.666c0,3.167 -1.458,5.959 -4.291,8.459l-95.459,85l92.209,-0c5.166,-0 7.75,3.041 7.75,9.166" style="fill:#20235c;fill-rule:nonzero;"/><path d="M485.058,37.188l-85.583,-0c-0,-0 -19.125,-1.208 -25.209,-0.167c-2.708,0.459 -3.75,3.209 -3.75,6.042c0,4.375 0.375,9.625 4,11.833c2.834,1.792 7.792,0.75 11.959,0.75l98.625,0c4.708,0 7.083,-3.083 7.083,-9.25c-0,-6.166 -3.792,-9.166 -8.5,-9.166" style="fill:#20235c;fill-rule:nonzero;"/><path d="M6.308,5.896l125.292,81.542l-124.292,85.5l-1,-167.042Z" style="fill:#20235c;fill-rule:nonzero;"/><path d="M24.183,37.73l125.292,81.541l-124.292,85.5l-1,-167.041Z" style="fill:#e22a20;fill-rule:nonzero;"/><g><path d="M561.475,159.146c-33.25,0 -49.959,-10.458 -49.959,-31.375l0,-59.541c0,-21.084 16.709,-31.375 49.959,-31.375l82.666,-0c5.417,-0 6.584,3.041 6.584,9.125c-0,6.083 -1.167,9.125 -6.584,9.125l-82,-0c-19.75,-0 -28.333,5.75 -28.333,13.166l-0,59.584c-0,7.25 8.625,13.166 28.333,13.166l82.167,0c5.417,0 6.417,3.042 6.417,9.125c-0,6.084 -1,9.125 -6.417,9.125l-82.833,0l-0,-0.125Z" style="fill:#e22a20;fill-rule:nonzero;"/><path d="M713.558,159.146c-33.25,0 -49.958,-10.458 -49.958,-31.375l-0,-83.708c-0,-6.417 3.875,-7.917 11.125,-7.917c7.25,0 11.291,1.5 11.291,7.917l0,83.708c0,7.25 8.459,13.167 28.167,13.167l82.667,-0c5.416,-0 6.416,3.042 6.416,8.958c0,5.917 -1,9.292 -6.416,9.292l-83.334,-0l0.042,-0.042Z" style="fill:#e22a20;fill-rule:nonzero;"/><path d="M835.725,151.896c-0,6.417 -3.875,7.917 -11.292,7.917c-7.417,-0 -11.125,-1.5 -11.125,-7.917l-0,-107.833c-0,-6.417 3.875,-7.917 11.125,-7.917c7.25,0 11.292,1.5 11.292,7.917l-0,107.833Z" style="fill:#e22a20;fill-rule:nonzero;"/><path d="M1129.52,154.105l-104.958,-88.417l-0,86.208c-0,6.417 -3.875,7.917 -11.292,7.917c-7.416,-0 -11.125,-1.5 -11.125,-7.917l0,-107.833c0,-6.25 3.709,-7.917 10.625,-7.917c7.417,0 10.625,1.875 15.875,6.25l103.417,88.084l-0,-86.417c-0,-6.417 3.875,-7.917 11.125,-7.917c7.25,0 11.292,1.5 11.292,7.917l-0,107.833c-0,6.584 -3.875,7.917 -11.625,7.917c-6.084,-0 -7.417,-0.833 -13.334,-5.75l0,0.042Z" style="fill:#e22a20;fill-rule:nonzero;"/><path d="M1244.27,55.063l0,96.875c0,6.417 -3.875,7.917 -11.291,7.917c-7.417,-0 -11.125,-1.5 -11.125,-7.917l-0,-96.875l-50.792,-0c-5.417,-0 -6.583,-3.042 -6.583,-9.125c-0,-6.083 1.166,-9.125 6.583,-9.125l124.208,-0c5.417,-0 6.584,3.042 6.584,9.125c-0,6.083 -1.167,9.125 -6.584,9.125l-51,-0Z" style="fill:#e22a20;fill-rule:nonzero;"/><g><path d="M873.433,107.813l-0,19.833c-0,3.625 2.25,6.709 6.792,9.334c4.5,2.583 11.75,3.916 21.666,3.916l80.959,0c2.708,0 4.5,0.75 5.333,2.292c0.833,1.542 1.25,3.792 1.25,6.875c-0,3.083 -0.417,5.208 -1.25,6.792c-0.833,1.583 -2.625,2.375 -5.333,2.375l-81.667,-0c-33.417,-0 -50.125,-10.5 -50.125,-31.5l-0,-59.875c-0,-21 16.708,-31.5 50.125,-31.5l25.25,-0c2.583,-0 4.333,0.75 5.167,2.291c0.833,1.542 1.25,3.792 1.25,6.875c-0,3.084 -0.417,5.334 -1.25,6.875c-0.834,1.542 -2.584,2.292 -5.167,2.292l-24.542,-0c-9.958,-0 -17.166,1.292 -21.666,3.792c-4.542,2.541 -6.792,5.666 -6.792,9.416l-0,21.667l109.958,-0c2.709,-0 4.5,0.75 5.334,2.292c0.833,1.541 1.25,3.791 1.25,6.875c-0,3.083 -0.417,5.333 -1.25,6.875c-0.834,1.541 -2.625,2.291 -5.334,2.291l-109.958,0l-0,-0.083Z" style="fill:#e32a1e;fill-rule:nonzero;"/><path d="M983.016,36.438l-68.458,-0c-0,-0 -15.125,0.625 -20,1.708c-2.167,0.5 -3.167,1.375 -3.167,4.292c0,4.458 -0.333,6.5 2.542,8.792c2.292,1.875 6.542,3.166 9.917,3.166l79.208,0.959c3.792,-0 5.667,-3.167 5.667,-9.5c-0,-6.334 -3.042,-9.417 -6.792,-9.417" style="fill:#e32a1e;fill-rule:nonzero;"/></g></g></g><g><g><g><g><path d="M893.707,210.658c1.749,-3.058 4.309,-5.557 7.678,-7.497c3.374,-1.938 7.218,-2.908 11.532,-2.908c4.62,0 8.773,1.095 12.458,3.281c3.683,2.187 6.584,5.266 8.706,9.232c2.126,3.962 3.189,8.567 3.189,13.813c0,5.186 -1.063,9.809 -3.189,13.866c-2.122,4.06 -5.041,7.216 -8.76,9.469c-3.715,2.249 -7.849,3.372 -12.404,3.372c-4.435,-0 -8.324,-0.966 -11.668,-2.899c-3.344,-1.938 -5.859,-4.407 -7.542,-7.406l-0,9.459l-8.524,0l-0,-69.325l8.524,-0l-0,27.543Zm34.849,15.921c-0,-3.872 -0.782,-7.243 -2.345,-10.114c-1.558,-2.872 -3.662,-5.055 -6.315,-6.552c-2.654,-1.502 -5.575,-2.254 -8.76,-2.254c-3.126,0 -6.016,0.768 -8.669,2.299c-2.654,1.527 -4.778,3.744 -6.371,6.652c-1.594,2.903 -2.389,6.259 -2.389,10.068c-0,3.872 0.795,7.261 2.389,10.169c1.593,2.903 3.717,5.121 6.371,6.652c2.653,1.526 5.543,2.29 8.669,2.29c3.185,-0 6.106,-0.764 8.76,-2.29c2.653,-1.531 4.757,-3.749 6.315,-6.652c1.563,-2.908 2.345,-6.329 2.345,-10.268Z" style="fill:#7a7878;fill-rule:nonzero;"/></g></g></g><g><g><g><path d="M992.73,201.098l-30.914,75.514l-8.806,0l10.114,-24.735l-20.7,-50.779l9.459,0l16.112,41.601l15.93,-41.601l8.805,0Z" style="fill:#7a7878;fill-rule:nonzero;"/></g></g></g></g><g><path d="M1198.64,219.523c-0,4.856 -2.423,8.355 -7.25,10.503c-3.744,1.562 -8.257,2.34 -13.535,2.336l-30.689,-0.021l-0.012,14.169c-0,1.509 -0.634,2.467 -1.911,2.864c-0.344,0.184 -1.62,0.278 -3.821,0.274c-2.071,-0 -3.106,-1.052 -3.106,-3.146l0.033,-42.236c0,-2.07 1.035,-3.105 3.105,-3.101l36.823,0.029c4.987,-0 9.218,0.695 12.695,2.078c5.119,1.915 7.68,4.824 7.676,8.723l-0.008,7.524l-0,0.004Zm-8.752,-0.315l0,-6.591c0.004,-2.807 -3.842,-4.214 -11.538,-4.223l-31.164,-0.02l-0.012,16.681l31.209,0.02c7.667,0.004 11.505,-1.952 11.509,-5.871" style="fill:#868686;fill-rule:nonzero;"/><path d="M1255.35,246.428c-0,1.219 -0.413,2.242 -1.236,3.064c-0.826,0.823 -1.845,1.232 -3.068,1.232c-1.698,-0 -3.077,-0.802 -4.137,-2.394l-7.83,-11.386l-37.261,-0.033l-7.851,11.383c-0.851,1.247 -1.763,1.869 -2.745,1.869c-0.982,0 -1.923,-0.319 -2.827,-0.957c-1.007,-0.692 -1.514,-1.502 -1.51,-2.43c-0,-0.291 0.078,-0.557 0.237,-0.794l27.977,-42.69c1.142,-1.751 3.101,-2.626 5.892,-2.622c2.07,-0 3.449,0.585 4.136,1.755c0.053,0.082 0.115,0.196 0.18,0.34c0.065,0.147 0.168,0.327 0.295,0.54l29.584,41.932c0.107,0.184 0.16,0.585 0.16,1.195m-21.435,-16.779l-13.399,-19.794l-13.51,19.774l26.909,0.02Z" style="fill:#868686;fill-rule:nonzero;"/><path d="M1295.1,203.865c-0,0.929 -0.479,1.845 -1.436,2.746l-23.861,22.87l-0.09,17.115c-0.057,1.567 -0.683,2.52 -1.882,2.864c-0.348,0.184 -1.616,0.278 -3.801,0.274c-2.107,-0 -3.159,-1.035 -3.159,-3.106l0.013,-17.155l-23.906,-22.903c-0.904,-0.88 -1.354,-1.78 -1.354,-2.709c-0,-1.751 1.186,-2.626 3.547,-2.626c2.68,-0 4.312,0.294 4.893,0.879l21.218,20.359l21.332,-20.33c0.585,-0.585 2.218,-0.876 4.894,-0.872c2.389,0 3.58,0.864 3.58,2.59" style="fill:#868686;fill-rule:nonzero;"/><path d="M1287.69,234.092c1.04,0 2.046,0.205 2.995,0.606c0.917,0.389 1.739,0.941 2.447,1.649c0.708,0.708 1.26,1.53 1.649,2.446c0.401,0.95 0.605,1.956 0.605,2.995c0,1.039 -0.204,2.046 -0.605,2.995c-0.389,0.917 -0.941,1.739 -1.649,2.447c-0.708,0.708 -1.53,1.264 -2.447,1.649c-0.949,0.401 -1.955,0.605 -2.995,0.605c-1.039,0 -2.045,-0.204 -2.994,-0.605c-0.917,-0.385 -1.739,-0.941 -2.447,-1.649c-0.708,-0.708 -1.26,-1.53 -1.649,-2.447c-0.401,-0.949 -0.605,-1.956 -0.605,-2.995c-0,-1.039 0.204,-2.045 0.605,-2.995c0.389,-0.916 0.941,-1.738 1.649,-2.446c0.708,-0.708 1.53,-1.265 2.447,-1.649c0.949,-0.401 1.955,-0.606 2.994,-0.606m0,-1.08c-4.848,0 -8.776,3.928 -8.776,8.776c0,4.849 3.932,8.776 8.776,8.776c4.845,0 8.776,-3.927 8.776,-8.776c0,-4.848 -3.931,-8.776 -8.776,-8.776" style="fill:#474747;fill-rule:nonzero;"/><path d="M1289.94,245.97l1.378,-0l-0.397,-0.5l-2.168,-2.733c1.416,0 2.565,-1.149 2.565,-2.565c0,-1.415 -1.149,-2.565 -2.565,-2.565l-4.185,-0l-0,8.371l1.08,-0l-0,-3.241l1.726,0l2.57,3.233l-0.004,-0Zm-4.292,-7.287l3.105,-0c0.818,-0 1.485,0.667 1.485,1.485c0,0.818 -0.667,1.485 -1.485,1.485l-3.105,0l-0,-2.97Z" style="fill:#474747;fill-rule:nonzero;"/><path d="M1079.45,237.206c-0,4.66 -2.214,8.113 -6.633,10.351c-3.408,1.731 -7.695,2.594 -12.867,2.594l-37.637,0c-2.074,0 -3.113,-1.051 -3.113,-3.159l-0,-42.39c-0,-2.079 1.039,-3.118 3.113,-3.118l37.122,0c3.326,0 6.362,0.266 9.107,0.798c2.962,0.72 5.458,2.037 7.512,3.956c2.266,2.156 3.4,4.66 3.4,7.512c-0,2.852 -0.107,4.766 -0.324,5.994c-0.053,0.241 -0.225,0.638 -0.519,1.195c-0.295,0.564 -0.692,1.268 -1.199,2.119c-0.986,1.706 -1.477,2.651 -1.477,2.835c0,0.135 0.491,0.974 1.477,2.521c0.507,0.769 0.908,1.423 1.199,1.955c0.294,0.536 0.466,0.949 0.519,1.24c0.107,0.425 0.189,1.1 0.242,2.017c0.053,0.916 0.082,2.111 0.082,3.576m-8.879,-2.475c0,-3.359 -3.666,-5.037 -10.993,-5.037l-31.516,0l-0,13.15l30.914,-0c7.173,-0 11.01,-1.535 11.518,-4.599c0.028,-0.16 0.045,-0.528 0.061,-1.117c0.012,-0.585 0.02,-1.387 0.02,-2.397m0.242,-16.861c-0,-0.88 -0.082,-2.238 -0.242,-4.075c-0.266,-3.384 -4.103,-5.073 -11.517,-5.073l-30.791,-0l-0,13.661l31.151,-0c7.602,-0 11.399,-1.502 11.399,-4.513" style="fill:#474747;fill-rule:nonzero;"/><path d="M1134.99,246.395c0,2.402 -1.002,3.605 -3.015,3.605l-41.425,-0c-1.788,-0 -3.29,-0.348 -4.509,-1.056c-1.539,-0.859 -2.304,-2.144 -2.304,-3.842c0,-1.096 0.434,-2.037 1.301,-2.819l42.093,-37.657c1.219,-1.125 2.52,-1.685 3.907,-1.685c0.523,-0 1.01,0.086 1.469,0.253c0.462,0.168 0.871,0.414 1.231,0.729c0.36,0.315 0.642,0.683 0.851,1.116c0.213,0.43 0.319,0.909 0.319,1.432c0,1.224 -0.56,2.324 -1.673,3.294l-37.146,33.075l35.878,-0c2.012,-0 3.015,1.186 3.015,3.567" style="fill:#474747;fill-rule:nonzero;"/><path d="M1132.24,202.343l-33.304,0c-0,0 -7.442,-0.474 -9.815,-0.069c-1.056,0.184 -1.465,1.244 -1.465,2.344c-0,1.698 0.151,3.744 1.559,4.607c1.108,0.704 3.027,0.29 4.656,0.29l38.369,0c1.837,0 2.749,-1.202 2.749,-3.604c-0,-2.402 -1.469,-3.568 -3.31,-3.568" style="fill:#474747;fill-rule:nonzero;"/></g></svg>