<?xml version="1.0" encoding="UTF-8" standalone="no"?><!DOCTYPE svg PUBLIC "-//W3C//DTD SVG 1.1//EN" "http://www.w3.org/Graphics/SVG/1.1/DTD/svg11.dtd"><svg width="100%" height="100%" viewBox="0 0 264 327" version="1.1" xmlns="http://www.w3.org/2000/svg" xmlns:xlink="http://www.w3.org/1999/xlink" xml:space="preserve" xmlns:serif="http://www.serif.com/" style="fill-rule:evenodd;clip-rule:evenodd;stroke-linejoin:round;stroke-miterlimit:2;"><path id="path5" d="M190.483,247.708c4.583,3.764 15.167,12.042 22.167,17.334c76.375,-84.542 43.375,-205.334 43.375,-205.334l-24.634,11.864c5.833,43.625 11.259,132.511 -40.908,176.136Z" style="fill:#5659be;fill-rule:nonzero;"/><path id="path3" d="M43.668,64.659c-35.209,157.541 59.19,226.299 99.857,248.008c-11.083,5.041 -23.125,9.708 -36.208,13.875c-147.792,-82.834 -99.769,-277.253 -99.769,-277.253l118.644,-49.289l35.458,16.333l-117.982,48.326Z" style="fill:#6569e0;"/><path id="polygon4" d="M96.9,87.31c-32.084,140.583 71.125,193.273 88.75,201.232c-9.042,6.5 -19.083,12.625 -30.167,18.333c-135.166,-68.292 -93.88,-234.585 -93.88,-234.585l116.339,-48.498l33.875,15.583l-114.917,47.935Z" style="fill:#6569e0;"/><path id="path6" d="M231.192,71.667l-83.378,37.308c-10.625,24.833 -10.539,50.067 -4.706,70.067c7.334,30.916 27.917,51.291 45.167,66.875l24.417,19.166c-5.875,6.209 -12.375,12.209 -19.584,17.959c-116.416,-72.5 -81.502,-181.772 -79.752,-188.73l113.502,-47.979c0,0 0.017,0.078 0.048,0.228c-0.015,-0.08 -0.031,-0.156 -0.048,-0.228l29.167,13.417l0,0.042l-24.833,11.875Z" style="fill:#6569e0;"/></svg>