<?xml version="1.0" encoding="UTF-8"?>
<svg id="Capa_1" data-name="Capa 1" xmlns="http://www.w3.org/2000/svg" viewBox="0 0 272.88 78.37">
  <defs>
    <style>
      .cls-1 {
        fill: none;
      }

      .cls-2 {
        fill: #044992;
      }

      .cls-3 {
        fill: #fff;
      }
    </style>
  </defs>
  <path class="cls-1" d="M55.49,17.2l-.34,.16c1.4,10.44,2.63,30.99-9.78,41.49,.18,.13,.36,.26,.54,.38,12.52-10.47,10.98-31.56,9.58-42.03Z"/>
  <path class="cls-1" d="M45.1,8.14l9.83-4.73-9.83,4.71v.02Z"/>
  <path class="cls-3" d="M10.47,15.54L1.78,11.89S-9.71,58.49,25.76,78.37c3.14-1,6.03-2.12,8.69-3.33C24.69,69.83,2.02,53.35,10.47,15.54Z"/>
  <polygon class="cls-3" points="38.8 3.92 30.29 0 1.78 11.89 10.47 15.54 38.8 3.92"/>
  <polygon class="cls-3" points="23.29 20.87 50.84 9.45 42.71 5.71 14.83 17.22 23.29 20.87"/>
  <path class="cls-3" d="M37.32,73.65c2.66-1.37,5.07-2.84,7.24-4.4-4.23-1.91-28.98-14.63-21.28-48.37l-8.46-3.65s-9.94,40.03,22.5,56.42Z"/>
  <path class="cls-3" d="M45.72,59.45c.32,3.82,3.64,2.89,5.32,4.16,18.33-20.29,10.41-49.28,10.41-49.28l-5.96,2.87c1.4,10.47,2.75,31.78-9.77,42.25Z"/>
  <path class="cls-3" d="M35.43,26.74l.07,.03,19.99-9.57c-.42-3.15-.89-5.36-1.04-6.08l-.3-.14-27.7,12.19,9.06,3.41c-.02,.05-.04,.11-.07,.16Z"/>
  <path class="cls-2" d="M26.33,23.21h0Z"/>
  <path class="cls-3" d="M61.45,14.34l-7-3.22c.16,.71,.62,2.93,1.04,6.08l5.96-2.85Z"/>
  <path class="cls-3" d="M45.19,59.02c-4.14-3.74-9.08-8.63-10.84-16.05-1.4-4.8-1.46-10.27,1.09-16.23l-9.07-3.52c-.42,1.67-7.96,27.31,19.98,44.71,1.73-1.38,3.29-2.82,4.7-4.31"/>
  <path class="cls-2" d="M26.38,23.14v.06l.06-.03-.06-.02Z"/>
  <path class="cls-3" d="M35.5,26.58l-9.06-3.41-.07,.03v.02l9.07,3.52c.02-.05,.04-.11,.07-.16Z"/>
  <g>
    <path class="cls-3" d="M76.94,68.14V10.23h8.85v28.8l-1.53,9.33,1.53,9.41v10.38h-8.85Zm20.67,.8c-2.95,0-5.58-.63-7.88-1.89-2.31-1.26-4.12-2.99-5.43-5.19-1.31-2.2-1.97-4.69-1.97-7.48v-11.1c0-2.79,.67-5.28,2.01-7.48,1.34-2.2,3.16-3.93,5.47-5.19,2.3-1.26,4.91-1.89,7.8-1.89,3.49,0,6.64,.9,9.45,2.69,2.82,1.8,5.04,4.21,6.68,7.24,1.63,3.03,2.45,6.45,2.45,10.26s-.82,7.15-2.45,10.17c-1.64,3.03-3.86,5.43-6.68,7.2-2.82,1.77-5.97,2.65-9.45,2.65Zm-1.45-8.37c2.14,0,4.03-.5,5.67-1.49,1.64-.99,2.92-2.37,3.86-4.14,.94-1.77,1.41-3.81,1.41-6.11s-.47-4.34-1.41-6.11c-.94-1.77-2.23-3.15-3.86-4.14-1.64-.99-3.53-1.49-5.67-1.49s-4.05,.5-5.71,1.49c-1.66,.99-2.95,2.37-3.86,4.14-.91,1.77-1.37,3.81-1.37,6.11s.45,4.34,1.37,6.11c.91,1.77,2.2,3.15,3.86,4.14,1.66,.99,3.57,1.49,5.71,1.49Z"/>
    <path class="cls-3" d="M119.41,63.32l21.56-28.96h10.38l-21.56,28.96h-10.38Zm0,4.83v-4.83l8.04-3.22h23.41v8.04h-31.45Zm1.45-30.56v-8.04h30.48v4.83l-8.04,3.22h-22.44Z"/>
    <path class="cls-3" d="M174.1,68.95c-3.49,0-6.64-.88-9.45-2.65-2.82-1.77-5.04-4.17-6.68-7.2-1.64-3.03-2.45-6.42-2.45-10.17s.82-7.23,2.45-10.26c1.63-3.03,3.86-5.44,6.68-7.24,2.82-1.8,5.96-2.69,9.45-2.69,2.95,0,5.56,.63,7.84,1.89,2.28,1.26,4.09,2.99,5.43,5.19,1.34,2.2,2.01,4.69,2.01,7.48v11.1c0,2.79-.66,5.28-1.97,7.48-1.31,2.2-3.12,3.93-5.43,5.19-2.31,1.26-4.93,1.89-7.88,1.89Zm1.45-8.37c3.27,0,5.91-1.1,7.92-3.3,2.01-2.2,3.02-5.01,3.02-8.45,0-2.31-.46-4.34-1.37-6.11-.91-1.77-2.19-3.15-3.82-4.14-1.64-.99-3.55-1.49-5.75-1.49s-4.04,.5-5.67,1.49c-1.64,.99-2.92,2.37-3.86,4.14-.94,1.77-1.41,3.81-1.41,6.11s.47,4.34,1.41,6.11c.94,1.77,2.22,3.15,3.86,4.14,1.64,.99,3.53,1.49,5.67,1.49Zm10.38,7.56v-10.38l1.53-9.41-1.53-9.33v-9.49h8.85v38.61h-8.85Z"/>
    <path class="cls-3" d="M200.65,37.58v-8.04h29.76v8.04h-29.76Zm9.25,30.56V24.46c0-2.95,.66-5.55,1.97-7.8,1.31-2.25,3.14-4.02,5.47-5.31,2.33-1.29,5.03-1.93,8.08-1.93,2.36,0,4.37,.4,6.03,1.21,1.66,.8,3.22,1.96,4.66,3.46l-5.71,5.71c-.64-.64-1.34-1.15-2.09-1.53-.75-.37-1.72-.56-2.9-.56-2.15,0-3.79,.58-4.95,1.73-1.15,1.15-1.73,2.8-1.73,4.95v43.76h-8.85Z"/>
    <path class="cls-3" d="M254.94,68.95c-3.86,0-7.33-.87-10.42-2.61-3.08-1.74-5.52-4.14-7.32-7.2-1.8-3.06-2.69-6.49-2.69-10.3s.88-7.23,2.65-10.26c1.77-3.03,4.17-5.43,7.2-7.2,3.03-1.77,6.39-2.65,10.09-2.65s6.77,.83,9.53,2.49c2.76,1.66,4.93,3.94,6.52,6.84,1.58,2.9,2.37,6.19,2.37,9.89,0,.64-.04,1.3-.12,1.97-.08,.67-.2,1.41-.36,2.21h-31.69v-7.24h27.11l-3.3,2.9c-.11-2.36-.56-4.34-1.37-5.95-.8-1.61-1.94-2.84-3.42-3.7-1.48-.86-3.29-1.29-5.43-1.29-2.25,0-4.21,.48-5.87,1.45-1.66,.96-2.95,2.32-3.86,4.06-.91,1.74-1.37,3.82-1.37,6.23s.48,4.53,1.45,6.35c.96,1.82,2.33,3.23,4.1,4.22,1.77,.99,3.81,1.49,6.11,1.49,1.98,0,3.82-.35,5.51-1.05,1.69-.7,3.12-1.72,4.3-3.06l5.63,5.71c-1.88,2.2-4.16,3.86-6.84,4.99-2.68,1.13-5.52,1.69-8.53,1.69Z"/>
  </g>
</svg>