<?xml version="1.0" encoding="UTF-8" standalone="no"?><!DOCTYPE svg PUBLIC "-//W3C//DTD SVG 1.1//EN" "http://www.w3.org/Graphics/SVG/1.1/DTD/svg11.dtd"><svg width="100%" height="100%" viewBox="0 0 414 48" version="1.1" xmlns="http://www.w3.org/2000/svg" xmlns:xlink="http://www.w3.org/1999/xlink" xml:space="preserve" xmlns:serif="http://www.serif.com/" style="fill-rule:evenodd;clip-rule:evenodd;stroke-linecap:round;stroke-linejoin:round;stroke-miterlimit:2;"><rect id="Artboard1" x="0" y="0" width="413.184" height="47.73" style="fill:none;"/><g id="g11"><path id="path3" d="M116.054,11.532c-0.143,0.189 -0.314,0.372 -0.514,0.548l-22.91,20.4l22.13,-0c1.24,-0 1.86,0.73 1.86,2.2l-0.02,-0c-0,1.48 -0.62,2.22 -1.86,2.22l-25.55,-0c-1.1,-0 -2.03,-0.22 -2.78,-0.65c-0.95,-0.53 -1.42,-1.32 -1.42,-2.37c-0,-0.68 0.27,-1.26 0.8,-1.74l22.583,-20.2l-17.133,-0c-1,-0 -2.19,0.25 -2.87,-0.18c-0.87,-0.53 -0.96,-1.79 -0.96,-2.84c-0,-0.68 0.25,-1.34 0.9,-1.45c1.46,-0.25 6.05,0.04 6.05,0.04l20.54,-0l-0.33,0.01c1.13,-0 2.04,0.72 2.04,2.2c-0,0.845 -0.186,1.449 -0.556,1.812Zm-33.724,17.488c-0,2.87 -1.37,5 -4.09,6.38c-2.1,1.07 -4.75,1.6 -7.94,1.6l-23.22,-0c-1.28,-0 -1.92,-0.65 -1.92,-1.95l-0,-26.15c-0,-1.28 0.64,-1.92 1.92,-1.92l22.9,-0c2.05,-0 3.92,0.16 5.62,0.49c1.83,0.44 3.37,1.26 4.63,2.44c1.4,1.33 2.1,2.88 2.1,4.63c-0,1.75 -0.07,2.94 -0.2,3.7c-0.03,0.15 -0.14,0.39 -0.32,0.74c-0.18,0.35 -0.43,0.78 -0.74,1.31c-0.61,1.05 -0.91,1.64 -0.91,1.75c-0,0.08 0.3,0.6 0.91,1.55c0.31,0.48 0.56,0.88 0.74,1.21c0.18,0.33 0.29,0.58 0.32,0.76c0.07,0.26 0.12,0.68 0.15,1.25c0.03,0.57 0.05,1.3 0.05,2.21Zm-5.47,-1.54c-0.007,-2.063 -2.267,-3.1 -6.78,-3.1l-19.44,-0l-0,8.11l19.07,-0c4.42,-0 6.79,-0.95 7.1,-2.84c0.02,-0.1 0.03,-0.33 0.04,-0.69c-0,-0.358 0.01,-0.845 0.01,-1.47l-0,-0.01Zm0.15,-10.4c-0,-0.54 -0.05,-1.38 -0.15,-2.51c-0.16,-2.09 -2.53,-3.13 -7.1,-3.13l-18.99,-0l-0,8.43l19.22,-0c4.69,-0 7.03,-0.93 7.03,-2.78l-0.01,-0.01Zm-77.01,-17.08l30.07,19.57l-29.83,20.52l-0.24,-40.09Z" style="fill:#20235c;"/><path id="polygon6" d="M4.29,7.64l30.07,19.57l-29.83,20.52l-0.24,-40.09Z" style="fill:#e22a20;fill-rule:nonzero;"/><path d="M277.477,28.486c0,-0.041 0,-0.083 0,-0.124l0,-12.724c0,-0.041 0,-0.083 0,-0.124c0,-5.205 3.62,-7.807 10.86,-7.807c0.062,-0 0.125,-0 0.188,-0l15.497,-0c1.282,-0 1.923,0.578 1.923,1.693c0,1.116 -0.641,1.694 -1.923,1.694l-15.308,0c-4.827,0 -7.165,1.57 -7.165,4.668l0,4.503l22.473,-0c1.207,-0 1.81,0.537 1.81,1.611c0,0.042 -0.001,0.084 -0.002,0.124c0.001,0.04 0.002,0.082 0.002,0.124c0,1.074 -0.603,1.611 -1.81,1.611l-22.473,0l0,4.503c0,3.098 2.338,4.668 7.165,4.668l15.308,-0c1.282,-0 1.923,0.578 1.923,1.694c0,1.115 -0.641,1.693 -1.923,1.693l-15.497,0c-0.063,0 -0.126,0 -0.188,0c-7.24,0 -10.86,-2.602 -10.86,-7.807Zm-130.539,7.807l-14.253,0c-7.353,0 -11.048,-2.643 -11.048,-7.931l-0,-12.848c-0,-5.205 3.619,-7.807 10.859,-7.807l14.442,-0c1.206,-0 1.885,0.578 1.885,1.693c-0,1.116 -0.679,1.694 -1.885,1.694l-14.366,0c-4.563,0 -6.863,1.487 -6.863,4.503l-0,12.641c-0,3.098 2.338,4.668 7.164,4.668l14.065,-0c1.206,-0 1.885,0.578 1.885,1.694c-0,1.115 -0.679,1.693 -1.885,1.693Zm24.433,0l-8.031,0c-7.353,0 -11.048,-2.643 -11.048,-7.931l-0,-12.765c-0,-5.247 3.62,-7.89 10.859,-7.89l8.409,-0c7.24,-0 10.859,2.643 10.859,7.89l0,12.765c0,5.288 -3.695,7.931 -11.048,7.931Zm6.976,-8.055l0,-12.559c0,-3.056 -2.3,-4.585 -6.863,-4.585l-8.257,0c-4.563,0 -6.863,1.529 -6.863,4.585l0,12.559c0,3.098 2.3,4.668 6.938,4.668l8.107,-0c4.638,-0 6.938,-1.57 6.938,-4.668Zm45.323,6.527l0,-19.705l-14.366,20.325c-0.415,0.578 -1.056,1.115 -2.112,1.115c-1.055,0 -1.696,-0.537 -2.111,-1.115l-14.291,-20.284l0,19.664c0,1.157 -0.716,1.735 -2.074,1.735c-1.319,0 -1.998,-0.578 -1.998,-1.735l-0,-25.365c-0,-1.239 0.716,-1.9 2.036,-1.9c1.131,0 1.772,0.454 2.338,1.239l16.1,22.928l16.176,-22.886c0.566,-0.785 1.169,-1.281 2.301,-1.281c1.357,-0 2.073,0.661 2.073,1.9l0,25.365c0,1.157 -0.716,1.735 -2.036,1.735c-1.357,0 -2.036,-0.578 -2.036,-1.735Zm45.436,-0l0,-19.705l-14.366,20.325c-0.415,0.578 -1.056,1.115 -2.111,1.115c-1.056,0 -1.697,-0.537 -2.112,-1.115l-14.291,-20.284l0,19.664c0,1.157 -0.716,1.735 -2.074,1.735c-1.319,0 -1.998,-0.578 -1.998,-1.735l0,-25.365c0,-1.239 0.716,-1.9 2.036,-1.9c1.131,0 1.772,0.454 2.338,1.239l16.101,22.928l16.176,-22.886c0.565,-0.785 1.169,-1.281 2.3,-1.281c1.357,-0 2.074,0.661 2.074,1.9l-0,25.365c-0,1.157 -0.717,1.735 -2.037,1.735c-1.357,0 -2.036,-0.578 -2.036,-1.735Zm66.062,1.322l-21.493,-10.989l0,9.667c0,1.157 -0.716,1.735 -2.074,1.735c-1.319,0 -1.998,-0.578 -1.998,-1.735l-0,-25.613c-0,-0.95 0.603,-1.445 1.734,-1.445l17.722,-0c7.806,-0 11.727,2.313 11.727,7.022l0,3.057c0,4.586 -3.921,6.899 -11.727,6.899l-9.011,0l17.495,8.428c0.792,0.371 1.132,0.867 1.132,1.611c-0,1.074 -0.755,1.776 -2.074,1.776c-0.566,0 -0.83,-0.083 -1.433,-0.413Zm-21.493,-24.704l0,10.163l15.498,-0c5.052,-0 7.541,-1.24 7.541,-3.76l-0,-2.974c-0,-2.479 -2.489,-3.718 -7.504,-3.718l-15.233,0c-0.189,0 -0.302,0.083 -0.302,0.289Zm55.994,24.91l-14.253,0c-7.353,0 -11.048,-2.643 -11.048,-7.931l0,-12.848c0,-5.205 3.62,-7.807 10.86,-7.807l14.441,-0c1.207,-0 1.886,0.578 1.886,1.693c-0,1.116 -0.679,1.694 -1.886,1.694l-14.366,0c-4.562,0 -6.862,1.487 -6.862,4.503l-0,12.641c-0,3.098 2.337,4.668 7.164,4.668l14.064,-0c1.207,-0 1.886,0.578 1.886,1.694c-0,1.115 -0.679,1.693 -1.886,1.693Zm5.355,-7.807l-0,-0.124l-0,-12.724l-0,-0.124c-0,-5.205 3.619,-7.807 10.859,-7.807l0.188,-0l15.498,-0c1.282,-0 1.923,0.578 1.923,1.693c-0,1.116 -0.641,1.694 -1.923,1.694l-15.309,0c-4.826,0 -7.164,1.57 -7.164,4.668l-0,4.503l22.473,-0c1.206,-0 1.81,0.537 1.81,1.611l-0.003,0.124l0.003,0.124c-0,1.074 -0.604,1.611 -1.81,1.611l-22.473,0l-0,4.503c-0,3.098 2.338,4.668 7.164,4.668l15.309,-0c1.282,-0 1.923,0.578 1.923,1.694c-0,1.115 -0.641,1.693 -1.923,1.693l-15.498,0l-0.188,0c-7.24,0 -10.859,-2.602 -10.859,-7.807Z" style="fill:#e22a20;stroke:#e22a20;stroke-width:1.5px;"/></g></svg>