<?xml version="1.0" encoding="UTF-8" standalone="no"?><!DOCTYPE svg PUBLIC "-//W3C//DTD SVG 1.1//EN" "http://www.w3.org/Graphics/SVG/1.1/DTD/svg11.dtd"><svg width="100%" height="100%" viewBox="0 0 234 48" version="1.1" xmlns="http://www.w3.org/2000/svg" xmlns:xlink="http://www.w3.org/1999/xlink" xml:space="preserve" xmlns:serif="http://www.serif.com/" style="fill-rule:evenodd;clip-rule:evenodd;stroke-linecap:round;stroke-linejoin:round;stroke-miterlimit:2;"><path id="path3" d="M116.054,11.532c-0.143,0.189 -0.314,0.372 -0.514,0.548l-22.91,20.4l22.13,-0c1.24,-0 1.86,0.73 1.86,2.2l-0.02,-0c-0,1.48 -0.62,2.22 -1.86,2.22l-25.55,-0c-1.1,-0 -2.03,-0.22 -2.78,-0.65c-0.95,-0.53 -1.42,-1.32 -1.42,-2.37c-0,-0.68 0.27,-1.26 0.8,-1.74l22.583,-20.2l-17.133,-0c-1,-0 -2.19,0.25 -2.87,-0.18c-0.87,-0.53 -0.96,-1.79 -0.96,-2.84c-0,-0.68 0.25,-1.34 0.9,-1.45c1.46,-0.25 6.05,0.04 6.05,0.04l20.54,-0l-0.33,0.01c1.13,-0 2.04,0.72 2.04,2.2c-0,0.845 -0.186,1.449 -0.556,1.812Zm-33.724,17.488c-0,2.87 -1.37,5 -4.09,6.38c-2.1,1.07 -4.75,1.6 -7.94,1.6l-23.22,-0c-1.28,-0 -1.92,-0.65 -1.92,-1.95l-0,-26.15c-0,-1.28 0.64,-1.92 1.92,-1.92l22.9,-0c2.05,-0 3.92,0.16 5.62,0.49c1.83,0.44 3.37,1.26 4.63,2.44c1.4,1.33 2.1,2.88 2.1,4.63c-0,1.75 -0.07,2.94 -0.2,3.7c-0.03,0.15 -0.14,0.39 -0.32,0.74c-0.18,0.35 -0.43,0.78 -0.74,1.31c-0.61,1.05 -0.91,1.64 -0.91,1.75c-0,0.08 0.3,0.6 0.91,1.55c0.31,0.48 0.56,0.88 0.74,1.21c0.18,0.33 0.29,0.58 0.32,0.76c0.07,0.26 0.12,0.68 0.15,1.25c0.03,0.57 0.05,1.3 0.05,2.21Zm-5.32,-11.94c0,-0.54 -0.05,-1.38 -0.15,-2.51c-0.16,-2.09 -2.53,-3.13 -7.1,-3.13l-18.99,-0l-0,8.43l19.22,-0c4.69,-0 7.03,-0.93 7.03,-2.78l-0.01,-0.01Zm-0.15,10.4c-0.007,-2.063 -2.267,-3.1 -6.78,-3.1l-19.44,-0l0,8.11l19.07,-0c4.42,-0 6.79,-0.95 7.1,-2.84c0.02,-0.1 0.03,-0.33 0.04,-0.69c0,-0.358 0.01,-0.845 0.01,-1.47l-0,-0.01Zm-76.86,-27.48l30.07,19.57l-29.83,20.52l-0.24,-40.09Z" style="fill:#20235c;"/><path id="polygon6" d="M4.29,7.64l30.07,19.57l-29.83,20.52l-0.24,-40.09Z" style="fill:#e22a20;fill-rule:nonzero;"/><path d="M148.597,36.293l-15.799,0c-7.353,0 -11.048,-2.685 -11.048,-8.096l-0,-18.962c-0,-1.157 0.679,-1.735 1.998,-1.735c1.358,0 2.074,0.578 2.074,1.735l0,18.838c0,3.222 2.338,4.833 7.164,4.833l15.611,-0c1.244,-0 1.885,0.578 1.885,1.694c0,1.115 -0.641,1.693 -1.885,1.693Zm4.524,-1.528l0,-25.53c0,-1.157 0.717,-1.735 2.112,-1.735c1.282,0 1.961,0.578 1.961,1.735l-0,25.53c-0,1.157 -0.717,1.735 -2.074,1.735c-1.32,0 -1.999,-0.578 -1.999,-1.735Zm10.596,-27.265c0.792,0 1.357,0.289 1.998,0.909l22.737,21.977l0,-21.192c0,-1.116 0.679,-1.694 2.037,-1.694c1.357,-0 2.036,0.578 2.036,1.694l-0,25.571c-0,1.157 -0.717,1.735 -2.15,1.735c-0.829,0 -1.357,-0.33 -1.998,-0.95l-22.699,-21.977l-0,21.192c-0,1.157 -0.717,1.735 -2.074,1.735c-1.32,0 -1.999,-0.578 -1.999,-1.735l0,-25.489c0,-1.198 0.717,-1.776 2.112,-1.776Zm57.05,28.463l-19.683,-11.608l0,10.41c0,1.157 -0.716,1.735 -2.036,1.735c-1.32,0 -2.036,-0.578 -2.036,-1.735l-0,-25.571c-0,-1.116 0.716,-1.694 2.036,-1.694c1.32,0 2.036,0.578 2.036,1.694l0,10.162l19.306,-11.36c0.565,-0.331 1.055,-0.496 1.583,-0.496c1.207,0 1.923,0.62 1.923,1.694c0,0.537 -0.226,1.156 -1.018,1.611l-19.343,10.947l19.72,11.278c0.943,0.537 1.207,0.991 1.207,1.735c-0,1.074 -0.754,1.735 -2.112,1.735c-0.377,0 -0.867,-0.041 -1.583,-0.537Z" style="fill:#e22a20;stroke:#e22a20;stroke-width:1px;"/><rect id="Artboard1" x="0" y="0" width="233.497" height="47.73" style="fill:none;"/><clipPath id="_clip1"><rect x="0" y="0" width="233.497" height="47.73"/></clipPath><g clip-path="url(#_clip1)"><g id="g11"></g></g></svg>