<?xml version="1.0" encoding="UTF-8" standalone="no"?><!DOCTYPE svg PUBLIC "-//W3C//DTD SVG 1.1//EN" "http://www.w3.org/Graphics/SVG/1.1/DTD/svg11.dtd"><svg width="100%" height="100%" viewBox="0 0 230 48" version="1.1" xmlns="http://www.w3.org/2000/svg" xmlns:xlink="http://www.w3.org/1999/xlink" xml:space="preserve" xmlns:serif="http://www.serif.com/" style="fill-rule:evenodd;clip-rule:evenodd;stroke-linecap:round;stroke-linejoin:round;stroke-miterlimit:2;"><path d="M216.769,31.372c0.18,-0.341 0.27,-0.725 0.27,-1.154l-0,-2.58c-0,-2.08 -2.089,-3.078 -6.229,-3.078l-6.911,-0c-7.634,-0 -11.469,-2.206 -11.469,-6.574l-0,-3.371c-0,-1.617 0.521,-2.938 1.559,-3.962c1.634,-1.761 4.729,-2.653 9.264,-2.653l16.14,0c1.253,0 1.937,0.582 1.937,1.706c0,1.123 -0.684,1.706 -1.937,1.706l-15.418,-0c-3.76,-0 -6.088,0.675 -6.985,2.008c-0.179,0.341 -0.269,0.725 -0.269,1.154l0,2.58c0,2.08 2.089,3.078 6.228,3.078l6.912,0c7.633,0 11.469,2.206 11.469,6.574l0,3.37c0,1.618 -0.521,2.938 -1.559,3.963c-1.635,1.761 -4.729,2.653 -9.264,2.653l-16.141,-0c-1.253,-0 -1.936,-0.583 -1.936,-1.706c-0,-1.123 0.683,-1.706 1.936,-1.706l15.419,0c3.76,0 6.088,-0.675 6.984,-2.008Zm-62.924,-15.342l0,3.454c0,5.367 -3.949,8.03 -11.811,8.03l-15.494,-0l-0,7.739c-0,1.165 -0.722,1.747 -2.089,1.747c-1.329,0 -2.013,-0.582 -2.013,-1.747l0,-25.797c0,-0.957 0.608,-1.456 1.747,-1.456l17.849,0c7.862,0 11.811,2.663 11.811,8.03Zm-27.305,-4.327l-0,12.399l15.608,-0c5.089,-0 7.596,-1.581 7.596,-4.743l-0,-3.204c-0,-3.162 -2.507,-4.743 -7.558,-4.743l-15.342,-0c-0.19,-0 -0.304,0.083 -0.304,0.291Zm50.585,25.089l-8.089,-0c-7.406,-0 -11.127,-2.663 -11.127,-7.989l-0,-12.856c-0,-5.284 3.645,-7.947 10.937,-7.947l8.469,0c7.291,0 10.937,2.663 10.937,7.947l0,12.856c0,5.326 -3.722,7.989 -11.127,7.989Zm7.026,-8.113l-0,-12.649c-0,-3.079 -2.317,-4.618 -6.912,-4.618l-8.317,-0c-4.595,-0 -6.912,1.539 -6.912,4.618l0,12.649c0,3.12 2.317,4.701 6.988,4.701l8.165,0c4.671,0 6.988,-1.581 6.988,-4.701Z" style="fill:#e22a20;stroke:#e22a20;stroke-width:1px;"/><path d="M4.53,47.73l-0.24,-40.09l30.07,19.57l-29.83,20.52Z" style="fill:#e22a20;"/><path id="path3" d="M116.054,11.532c-0.143,0.189 -0.314,0.372 -0.514,0.548l-22.91,20.4l22.13,-0c1.24,-0 1.86,0.73 1.86,2.2l-0.02,-0c-0,1.48 -0.62,2.22 -1.86,2.22l-25.55,-0c-1.1,-0 -2.03,-0.22 -2.78,-0.65c-0.95,-0.53 -1.42,-1.32 -1.42,-2.37c-0,-0.68 0.27,-1.26 0.8,-1.74l22.583,-20.2l-17.133,-0c-1,-0 -2.19,0.25 -2.87,-0.18c-0.87,-0.53 -0.96,-1.79 -0.96,-2.84c-0,-0.68 0.25,-1.34 0.9,-1.45c1.46,-0.25 6.05,0.04 6.05,0.04l20.54,-0l-0.33,0.01c1.13,-0 2.04,0.72 2.04,2.2c-0,0.845 -0.186,1.449 -0.556,1.812Zm-33.724,17.488c-0,2.87 -1.37,5 -4.09,6.38c-2.1,1.07 -4.75,1.6 -7.94,1.6l-23.22,-0c-1.28,-0 -1.92,-0.65 -1.92,-1.95l-0,-26.15c-0,-1.28 0.64,-1.92 1.92,-1.92l22.9,-0c2.05,-0 3.92,0.16 5.62,0.49c1.83,0.44 3.37,1.26 4.63,2.44c1.4,1.33 2.1,2.88 2.1,4.63c-0,1.75 -0.07,2.94 -0.2,3.7c-0.03,0.15 -0.14,0.39 -0.32,0.74c-0.18,0.35 -0.43,0.78 -0.74,1.31c-0.61,1.05 -0.91,1.64 -0.91,1.75c-0,0.08 0.3,0.6 0.91,1.55c0.31,0.48 0.56,0.88 0.74,1.21c0.18,0.33 0.29,0.58 0.32,0.76c0.07,0.26 0.12,0.68 0.15,1.25c0.03,0.57 0.05,1.3 0.05,2.21Zm-5.47,-1.54c-0.007,-2.063 -2.267,-3.1 -6.78,-3.1l-19.44,-0l-0,8.11l19.07,-0c4.42,-0 6.79,-0.95 7.1,-2.84c0.02,-0.1 0.03,-0.33 0.04,-0.69c0,-0.358 0.01,-0.845 0.01,-1.47l-0,-0.01Zm0.15,-10.4c0,-0.54 -0.05,-1.38 -0.15,-2.51c-0.16,-2.09 -2.53,-3.13 -7.1,-3.13l-18.99,-0l-0,8.43l19.22,-0c4.69,-0 7.03,-0.93 7.03,-2.78l-0.01,-0.01Zm-72.543,20.102l-4.227,2.908l-0.24,-40.09l30.07,19.57l-3.621,2.491l-22.159,-14.421l0.177,29.542Z" style="fill:#20235c;"/></svg>