<?xml version="1.0" encoding="UTF-8" standalone="no"?><!DOCTYPE svg PUBLIC "-//W3C//DTD SVG 1.1//EN" "http://www.w3.org/Graphics/SVG/1.1/DTD/svg11.dtd"><svg width="100%" height="100%" viewBox="0 0 230 48" version="1.1" xmlns="http://www.w3.org/2000/svg" xmlns:xlink="http://www.w3.org/1999/xlink" xml:space="preserve" xmlns:serif="http://www.serif.com/" style="fill-rule:evenodd;clip-rule:evenodd;"><g id="g11"><path id="path3" d="M82.33,29.02c0,2.87 -1.37,5 -4.09,6.38c-2.1,1.07 -4.75,1.6 -7.94,1.6l-23.22,0c-1.28,0 -1.92,-0.65 -1.92,-1.95l0,-26.15c0,-1.28 0.64,-1.92 1.92,-1.92l22.9,0c2.05,0 3.92,0.16 5.62,0.49c1.83,0.44 3.37,1.26 4.63,2.44c1.4,1.33 2.1,2.88 2.1,4.63c-0,1.75 -0.07,2.94 -0.2,3.7c-0.03,0.15 -0.14,0.39 -0.32,0.74c-0.18,0.35 -0.43,0.78 -0.74,1.31c-0.61,1.05 -0.91,1.64 -0.91,1.75c-0,0.08 0.3,0.6 0.91,1.55c0.31,0.48 0.56,0.88 0.74,1.21c0.18,0.33 0.29,0.58 0.32,0.76c0.07,0.26 0.12,0.68 0.15,1.25c0.03,0.57 0.05,1.3 0.05,2.21m-5.47,-1.53c-0,-2.07 -2.26,-3.11 -6.78,-3.11l-19.44,0l0,8.11l19.07,0c4.42,0 6.79,-0.95 7.1,-2.84c0.02,-0.1 0.03,-0.33 0.04,-0.69c0,-0.36 0.01,-0.85 0.01,-1.48m0.15,-10.4c0,-0.54 -0.05,-1.38 -0.15,-2.51c-0.16,-2.09 -2.53,-3.13 -7.1,-3.13l-18.99,0l-0,8.43l19.22,0c4.69,0 7.03,-0.93 7.03,-2.78" style="fill:#20235c;fill-rule:nonzero;"/><path id="path4" d="M116.6,34.68c-0,1.48 -0.62,2.22 -1.86,2.22l-25.55,0c-1.1,0 -2.03,-0.22 -2.78,-0.65c-0.95,-0.53 -1.42,-1.32 -1.42,-2.37c-0,-0.68 0.27,-1.26 0.8,-1.74l25.97,-23.23c0.75,-0.69 1.56,-1.04 2.41,-1.04c0.32,0 0.62,0.05 0.91,0.16c0.28,0.1 0.54,0.25 0.76,0.45c0.22,0.19 0.4,0.42 0.53,0.69c0.13,0.26 0.2,0.56 0.2,0.88c0,0.76 -0.35,1.43 -1.03,2.03l-22.91,20.4l22.13,-0c1.24,-0 1.86,0.73 1.86,2.2" style="fill:#20235c;fill-rule:nonzero;"/><path id="path5" d="M114.9,7.51l-20.54,0c-0,0 -4.59,-0.29 -6.05,-0.04c-0.65,0.11 -0.9,0.77 -0.9,1.45c-0,1.05 0.09,2.31 0.96,2.84c0.68,0.43 1.87,0.18 2.87,0.18l23.67,0c1.13,0 1.7,-0.74 1.7,-2.22c-0,-1.48 -0.91,-2.2 -2.04,-2.2" style="fill:#20235c;fill-rule:nonzero;"/><path id="polygon5" d="M0,0l30.07,19.57l-29.83,20.52l-0.24,-40.09Z" style="fill:#20235c;fill-rule:nonzero;"/><path id="polygon6" d="M4.29,7.64l30.07,19.57l-29.83,20.52l-0.24,-40.09Z" style="fill:#e22a20;fill-rule:nonzero;"/></g><path id="text11" d="M134.993,34.689c0,1.13 0.706,1.696 2.158,1.696c1.373,-0 2.08,-0.566 2.08,-1.696l-0,-23.135l10.671,-0c1.334,-0 2.001,-0.565 2.001,-1.696c0,-1.049 -0.667,-1.615 -2.001,-1.615l-25.62,0c-1.295,0 -1.962,0.566 -1.962,1.656c0,1.13 0.667,1.655 1.962,1.655l10.711,-0l0,23.135Zm47.703,-6.379c-0,3.028 -2.394,4.562 -7.22,4.562l-8.435,-0c-4.826,-0 -7.219,-1.534 -7.219,-4.562l-0,-12.274c-0,-2.988 2.393,-4.482 7.14,-4.482l8.593,-0c4.747,-0 7.141,1.494 7.141,4.482l-0,12.274Zm-7.259,7.873c7.651,-0 11.496,-2.584 11.496,-7.752l-0,-12.476c-0,-5.128 -3.767,-7.712 -11.3,-7.712l-8.749,0c-7.533,0 -11.3,2.584 -11.3,7.712l0,12.476c0,5.168 3.845,7.752 11.496,7.752l8.357,-0Zm51.08,-20.147c0,-5.209 -4.08,-7.793 -12.202,-7.793l-18.44,0c-1.177,0 -1.805,0.485 -1.805,1.413l-0,25.033c-0,1.13 0.706,1.696 2.079,1.696c1.413,-0 2.158,-0.566 2.158,-1.696l0,-7.51l16.008,0c8.122,0 12.202,-2.584 12.202,-7.792l0,-3.351Zm-28.21,-4.199c0,-0.202 0.118,-0.283 0.314,-0.283l15.851,-0c5.218,-0 7.808,1.534 7.808,4.603l-0,3.109c-0,3.068 -2.59,4.602 -7.847,4.602l-16.126,0l0,-12.031Z" style="fill:#e22a20;fill-rule:nonzero;stroke:#e22a20;stroke-width:1.01px;"/></svg>