<?xml version="1.0" encoding="UTF-8" standalone="no"?>
<svg
   id="Capa_1"
   data-name="Capa 1"
   viewBox="0 0 230 47.73"
   version="1.1"
   sodipodi:docname="bztop_light.svg"
   width="230"
   height="47.73"
   inkscape:version="1.4.2 (ebf0e940d0, 2025-05-08)"
   xmlns:inkscape="http://www.inkscape.org/namespaces/inkscape"
   xmlns:sodipodi="http://sodipodi.sourceforge.net/DTD/sodipodi-0.dtd"
   xmlns="http://www.w3.org/2000/svg"
   xmlns:svg="http://www.w3.org/2000/svg">
  <sodipodi:namedview
     id="namedview11"
     pagecolor="#ffffff"
     bordercolor="#000000"
     borderopacity="0.25"
     inkscape:showpageshadow="2"
     inkscape:pageopacity="0.0"
     inkscape:pagecheckerboard="0"
     inkscape:deskcolor="#d1d1d1"
     showgrid="true"
     inkscape:zoom="1.9555498"
     inkscape:cx="227.55749"
     inkscape:cy="-24.034162"
     inkscape:window-width="1920"
     inkscape:window-height="1011"
     inkscape:window-x="0"
     inkscape:window-y="0"
     inkscape:window-maximized="1"
     inkscape:current-layer="Capa_1">
    <inkscape:grid
       id="grid11"
       units="px"
       originx="0"
       originy="0"
       spacingx="0.99999999"
       spacingy="1"
       empcolor="#0099e5"
       empopacity="0.30196078"
       color="#0099e5"
       opacity="0.14902"
       empspacing="5"
       enabled="true"
       visible="true" />
  </sodipodi:namedview>
  <defs
     id="defs1">
    <rect
       x="44.837132"
       y="7.2317953"
       width="332.66257"
       height="30.373541"
       id="rect12" />
    <rect
       x="45.56031"
       y="6.5086155"
       width="36.882156"
       height="30.735128"
       id="rect11" />
    <style
       id="style1">
      .cls-1 {
        fill: #e22a20;
      }

      .cls-2 {
        fill: #e32a1e;
      }

      .cls-3 {
        fill: #20235c;
      }
    </style>
  </defs>
  <g
     id="g11">
    <path
       class="cls-3"
       d="m 82.33,29.02 c 0,2.87 -1.37,5 -4.09,6.38 -2.1,1.07 -4.75,1.6 -7.94,1.6 H 47.08 C 45.8,37 45.16,36.35 45.16,35.05 V 8.9 c 0,-1.28 0.64,-1.92 1.92,-1.92 h 22.9 c 2.05,0 3.92,0.16 5.62,0.49 1.83,0.44 3.37,1.26 4.63,2.44 1.4,1.33 2.1,2.88 2.1,4.63 0,1.75 -0.07,2.94 -0.2,3.7 -0.03,0.15 -0.14,0.39 -0.32,0.74 -0.18,0.35 -0.43,0.78 -0.74,1.31 -0.61,1.05 -0.91,1.64 -0.91,1.75 0,0.08 0.3,0.6 0.91,1.55 0.31,0.48 0.56,0.88 0.74,1.21 0.18,0.33 0.29,0.58 0.32,0.76 0.07,0.26 0.12,0.68 0.15,1.25 0.03,0.57 0.05,1.3 0.05,2.21 m -5.47,-1.53 c 0,-2.07 -2.26,-3.11 -6.78,-3.11 H 50.64 v 8.11 h 19.07 c 4.42,0 6.79,-0.95 7.1,-2.84 0.02,-0.1 0.03,-0.33 0.04,-0.69 0,-0.36 0.01,-0.85 0.01,-1.48 m 0.15,-10.4 c 0,-0.54 -0.05,-1.38 -0.15,-2.51 -0.16,-2.09 -2.53,-3.13 -7.1,-3.13 H 50.77 v 8.43 h 19.22 c 4.69,0 7.03,-0.93 7.03,-2.78"
       id="path3"
       inkscape:label="path3" />
    <path
       class="cls-3"
       d="m 116.6,34.68 c 0,1.48 -0.62,2.22 -1.86,2.22 H 89.19 c -1.1,0 -2.03,-0.22 -2.78,-0.65 -0.95,-0.53 -1.42,-1.32 -1.42,-2.37 0,-0.68 0.27,-1.26 0.8,-1.74 L 111.76,8.91 c 0.75,-0.69 1.56,-1.04 2.41,-1.04 0.32,0 0.62,0.05 0.91,0.16 0.28,0.1 0.54,0.25 0.76,0.45 0.22,0.19 0.4,0.42 0.53,0.69 0.13,0.26 0.2,0.56 0.2,0.88 0,0.76 -0.35,1.43 -1.03,2.03 l -22.91,20.4 h 22.13 c 1.24,0 1.86,0.73 1.86,2.2"
       id="path4" />
    <path
       class="cls-3"
       d="M 114.9,7.51 H 94.36 c 0,0 -4.59,-0.29 -6.05,-0.04 -0.65,0.11 -0.9,0.77 -0.9,1.45 0,1.05 0.09,2.31 0.96,2.84 0.68,0.43 1.87,0.18 2.87,0.18 h 23.67 c 1.13,0 1.7,-0.74 1.7,-2.22 0,-1.48 -0.91,-2.2 -2.04,-2.2"
       id="path5" />
    <polygon
       class="cls-3"
       points="0,0 30.07,19.57 0.24,40.09 "
       id="polygon5" />
    <polygon
       class="cls-1"
       points="4.29,7.64 34.36,27.21 4.53,47.73 "
       id="polygon6" />
  </g>
  <path
     style="font-size:24px;font-family:'Neuropol X';-inkscape-font-specification:'Neuropol X';letter-spacing:-1.83503px;word-spacing:-1.2784px;white-space:pre;fill:#e22a20;stroke:#e22a20;stroke-width:1.01438"
     d="m 134.99324,34.688797 c 0,1.130497 0.70623,1.695745 2.15792,1.695745 1.37322,0 2.07945,-0.565248 2.07945,-1.695745 V 11.553998 h 10.67188 c 1.33399,0 2.00098,-0.565249 2.00098,-1.6957449 0,-1.0497466 -0.66699,-1.6149948 -2.00098,-1.6149948 h -25.62037 c -1.29475,0 -1.96174,0.5652482 -1.96174,1.6553697 0,1.130496 0.66699,1.65537 1.96174,1.65537 h 10.71112 z m 47.70239,-6.379229 c 0,3.028115 -2.39333,4.56236 -7.21922,4.56236 h -8.4355 c -4.82589,0 -7.21921,-1.534245 -7.21921,-4.56236 v -12.27396 c 0,-2.98774 2.39332,-4.48161 7.14074,-4.48161 h 8.59244 c 4.74742,0 7.14075,1.49387 7.14075,4.48161 z m -7.25845,7.8731 c 7.6508,0 11.49581,-2.583992 11.49581,-7.751975 V 15.954858 c 0,-5.127608 -3.76654,-7.7115997 -11.29964,-7.7115997 h -8.74938 c -7.53309,0 -11.29964,2.5839917 -11.29964,7.7115997 v 12.475835 c 0,5.167983 3.84502,7.751975 11.49582,7.751975 z m 53.07994,-20.14706 c 0,-5.208358 -4.08043,-7.7923497 -12.20205,-7.7923497 h -18.44039 c -1.17704,0 -1.8048,0.4844985 -1.8048,1.4131205 V 34.688797 c 0,1.130497 0.70623,1.695745 2.07945,1.695745 1.41245,0 2.15791,-0.565248 2.15791,-1.695745 v -7.509725 h 16.00783 c 8.12162,0 12.20205,-2.583992 12.20205,-7.79235 z m -28.20988,-4.198986 c 0,-0.201875 0.11771,-0.282624 0.31388,-0.282624 h 15.85089 c 5.21824,0 7.80774,1.534245 7.80774,4.602735 v 3.108865 c 0,3.06849 -2.5895,4.602735 -7.84697,4.602735 h -16.12554 z"
     id="text11"
     aria-label="TAP ON PHONE"
     sodipodi:nodetypes="ssscsssssscsssssssssssssssssssssssssscssssssssscs"
     inkscape:label="text11" />
</svg>
