<?xml version="1.0" encoding="UTF-8" standalone="no"?><!DOCTYPE svg PUBLIC "-//W3C//DTD SVG 1.1//EN" "http://www.w3.org/Graphics/SVG/1.1/DTD/svg11.dtd"><svg width="100%" height="100%" viewBox="0 0 1686 1023" version="1.1" xmlns="http://www.w3.org/2000/svg" xmlns:xlink="http://www.w3.org/1999/xlink" xml:space="preserve" xmlns:serif="http://www.serif.com/" style="fill-rule:evenodd;clip-rule:evenodd;stroke-linecap:round;stroke-linejoin:round;stroke-miterlimit:1.5;"><rect id="Artboard2" x="0" y="0" width="1685.08" height="1022.15" style="fill:none;"/><clipPath id="_clip1"><rect x="0" y="0" width="1685.08" height="1022.15"/></clipPath><g clip-path="url(#_clip1)"><g><path d="M1688.37,153.322l-0,715.505c-0,84.621 -68.702,153.322 -153.323,153.322l-1378.44,0c-84.621,0 -153.322,-68.701 -153.322,-153.322l-0,-715.505c-0,-84.621 68.701,-153.322 153.322,-153.322l1378.44,0c84.621,0 153.323,68.701 153.323,153.322Z" style="fill:#e8e7e3;"/><rect x="74.008" y="875.389" width="1543.65" height="54.987" style="fill:#b5b0c9;"/><rect x="74.008" y="783.744" width="1543.65" height="54.987" style="fill:#b5b0c9;"/><rect x="74.008" y="728.756" width="1543.65" height="54.987" style="fill:#b5b0c9;"/><path d="M1688.37,94.267l-0,282.8l-1685.08,0l-0,-282.8c-0,-52.027 42.239,-94.267 94.267,-94.267l1496.55,0c52.027,0 94.267,42.24 94.267,94.267Z" style="fill:#c2b9b2;"/><rect x="542.54" y="24.233" width="1073.4" height="54.987" style="fill:#99928b;"/><rect x="542.54" y="24.233" width="1073.4" height="54.987" style="fill:#99928b;"/><rect x="74.008" y="161.04" width="1543.65" height="186.727" style="fill:#99928b;"/><rect x="74.008" y="412.58" width="1233.77" height="221.094" style="fill:none;stroke:#99928b;stroke-width:8.33px;"/><path d="M1570.11,511.075l-162.67,81.335l-0,-162.671l162.67,81.336Z" style="fill:#321d6b;fill-opacity:0.36;"/><path d="M1595.32,552.339l-162.67,81.335l-0,-162.67l162.67,81.335Z" style="fill:#b4470d;fill-opacity:0.38;"/></g></g></svg>