<?xml version="1.0" encoding="UTF-8" standalone="no"?><!DOCTYPE svg PUBLIC "-//W3C//DTD SVG 1.1//EN" "http://www.w3.org/Graphics/SVG/1.1/DTD/svg11.dtd"><svg width="100%" height="100%" viewBox="0 0 1686 1023" version="1.1" xmlns="http://www.w3.org/2000/svg" xmlns:xlink="http://www.w3.org/1999/xlink" xml:space="preserve" xmlns:serif="http://www.serif.com/" style="fill-rule:evenodd;clip-rule:evenodd;stroke-linejoin:round;stroke-miterlimit:2;"><rect id="Artboard3" x="0" y="0" width="1685.08" height="1022.15" style="fill:none;"/><clipPath id="_clip1"><rect x="0" y="0" width="1685.08" height="1022.15"/></clipPath><g clip-path="url(#_clip1)"><g><path d="M1688.37,155.427l-0,715.505c-0,84.621 -68.702,153.322 -153.323,153.322l-1378.44,0c-84.621,0 -153.322,-68.701 -153.322,-153.322l-0,-715.505c-0,-84.621 68.701,-153.322 153.322,-153.322l1378.44,-0c84.621,-0 153.323,68.701 153.323,153.322Z" style="fill:#e8e7e3;"/><path d="M152.74,592.242c-0,-43.373 35.69,-79.063 79.062,-79.063c43.373,0 79.063,35.69 79.063,79.063c-0,43.372 -35.69,79.062 -79.063,79.062c-43.372,0 -79.062,-35.69 -79.062,-79.062Zm-65.868,247.817c1.225,-78.655 66.266,-142.691 144.93,-142.691c78.664,-0 143.706,64.036 144.931,142.691c0.093,5.224 -2.93,10.031 -7.678,12.211c-43.059,19.742 -89.884,29.932 -137.253,29.868c-48.948,-0 -95.455,-10.683 -137.252,-29.868c-4.749,-2.18 -7.771,-6.987 -7.678,-12.211Z" style="fill:#443d5e;stroke:#443d5e;stroke-width:4.17px;"/><path d="M1501.58,663.879c0,-18.594 15.301,-33.895 33.894,-33.895c18.594,0 33.895,15.301 33.895,33.895c-0,18.594 -15.301,33.894 -33.895,33.894c-18.593,0 -33.894,-15.3 -33.894,-33.894Zm-28.238,106.24c0.525,-33.72 28.409,-61.172 62.132,-61.172c33.724,-0 61.608,27.452 62.133,61.172c0.04,2.24 -1.256,4.3 -3.292,5.235c-18.459,8.463 -38.534,12.832 -58.841,12.804c-20.984,0 -40.921,-4.579 -58.84,-12.804c-2.036,-0.935 -3.332,-2.995 -3.292,-5.235Z" style="fill:#443d5e;fill-opacity:0.26;"/><rect x="524.211" y="427.286" width="557.891" height="54.987" style="fill:#b5b0c9;"/><rect x="524.211" y="513.179" width="557.891" height="54.987" style="fill:#b5b0c9;"/><rect x="524.211" y="642.671" width="794.451" height="54.987" style="fill:#b5b0c9;"/><rect x="524.211" y="733.171" width="794.451" height="54.987" style="fill:#b5b0c9;"/><rect x="524.211" y="895.842" width="278.946" height="54.987" style="fill:#b5b0c9;"/><rect x="1318.66" y="895.842" width="278.946" height="54.987" style="fill:#b5b0c9;"/><rect x="1458.13" y="431.887" width="139.473" height="54.987" style="fill:#b5b0c9;"/><path d="M1688.37,96.371l-0,282.801l-1685.08,-0l-0,-282.801c-0,-52.027 42.239,-94.266 94.267,-94.266l1496.55,-0c52.027,-0 94.267,42.239 94.267,94.266Z" style="fill:#c2b9b2;"/><rect x="524.211" y="130.584" width="1073.4" height="54.987" style="fill:#99928b;"/><rect x="524.211" y="226.812" width="557.891" height="54.987" style="fill:#99928b;"/><circle cx="231.802" cy="190.638" r="113.126" style="fill:#99928b;"/></g></g></svg>