<?xml version="1.0" encoding="UTF-8"?>
<svg xmlns="http://www.w3.org/2000/svg" id="Capa_1" data-name="Capa 1" viewBox="0 0 310.91 47.73">
  <defs>
    <style>
      .cls-1 {
        fill: #e22a20;
      }

      .cls-2 {
        fill: #e32a1e;
      }

      .cls-3 {
        fill: #20235c;
      }
    </style>
  </defs>
  <g>
    <path class="cls-2" d="M208.11,24.46v4.76c0,.87,.54,1.61,1.63,2.24,1.08,.62,2.82,.94,5.2,.94h19.43c.65,0,1.08,.18,1.28,.55,.2,.37,.3,.91,.3,1.65s-.1,1.25-.3,1.63-.63,.57-1.28,.57h-19.6c-8.02,0-12.03-2.52-12.03-7.56V14.87c0-5.04,4.01-7.56,12.03-7.56h6.06c.62,0,1.04,.18,1.24,.55,.2,.37,.3,.91,.3,1.65s-.1,1.28-.3,1.65c-.2,.37-.62,.55-1.24,.55h-5.89c-2.39,0-4.12,.31-5.2,.91-1.09,.61-1.63,1.36-1.63,2.26v5.2h26.39c.65,0,1.08,.18,1.28,.55s.3,.91,.3,1.65-.1,1.28-.3,1.65c-.2,.37-.63,.55-1.28,.55h-26.39Z"></path>
    <path class="cls-2" d="M234.41,7.33h-16.43s-3.63,.15-4.8,.41c-.52,.12-.76,.33-.76,1.03,0,1.07-.08,1.56,.61,2.11,.55,.45,1.57,.76,2.38,.76l19.01,.23c.91,0,1.36-.76,1.36-2.28s-.73-2.26-1.63-2.26"></path>
  </g>
  <g>
    <path class="cls-3" d="M82.33,29.02c0,2.87-1.37,5-4.09,6.38-2.1,1.07-4.75,1.6-7.94,1.6h-23.22c-1.28,0-1.92-.65-1.92-1.95V8.9c0-1.28,.64-1.92,1.92-1.92h22.9c2.05,0,3.92,.16,5.62,.49,1.83,.44,3.37,1.26,4.63,2.44,1.4,1.33,2.1,2.88,2.1,4.63s-.07,2.94-.2,3.7c-.03,.15-.14,.39-.32,.74-.18,.35-.43,.78-.74,1.31-.61,1.05-.91,1.64-.91,1.75,0,.08,.3,.6,.91,1.55,.31,.48,.56,.88,.74,1.21,.18,.33,.29,.58,.32,.76,.07,.26,.12,.68,.15,1.25,.03,.57,.05,1.3,.05,2.21m-5.47-1.53c0-2.07-2.26-3.11-6.78-3.11h-19.44v8.11h19.07c4.42,0,6.79-.95,7.1-2.84,.02-.1,.03-.33,.04-.69,0-.36,.01-.85,.01-1.48m.15-10.4c0-.54-.05-1.38-.15-2.51-.16-2.09-2.53-3.13-7.1-3.13h-18.99v8.43h19.22c4.69,0,7.03-.93,7.03-2.78"></path>
    <path class="cls-3" d="M116.6,34.68c0,1.48-.62,2.22-1.86,2.22h-25.55c-1.1,0-2.03-.22-2.78-.65-.95-.53-1.42-1.32-1.42-2.37,0-.68,.27-1.26,.8-1.74l25.97-23.23c.75-.69,1.56-1.04,2.41-1.04,.32,0,.62,.05,.91,.16,.28,.1,.54,.25,.76,.45,.22,.19,.4,.42,.53,.69,.13,.26,.2,.56,.2,.88,0,.76-.35,1.43-1.03,2.03l-22.91,20.4h22.13c1.24,0,1.86,.73,1.86,2.2"></path>
    <path class="cls-3" d="M114.9,7.51h-20.54s-4.59-.29-6.05-.04c-.65,.11-.9,.77-.9,1.45,0,1.05,.09,2.31,.96,2.84,.68,.43,1.87,.18,2.87,.18h23.67c1.13,0,1.7-.74,1.7-2.22s-.91-2.2-2.04-2.2"></path>
    <polygon class="cls-3" points="0 0 30.07 19.57 .24 40.09 0 0"></polygon>
    <polygon class="cls-1" points="4.29 7.64 34.36 27.21 4.53 47.73 4.29 7.64"></polygon>
    <g>
      <path class="cls-1" d="M133.24,36.78c-7.98,0-11.99-2.51-11.99-7.53V14.96c0-5.06,4.01-7.53,11.99-7.53h19.84c1.3,0,1.58,.73,1.58,2.19s-.28,2.19-1.58,2.19h-19.68c-4.74,0-6.8,1.38-6.8,3.16v14.3c0,1.74,2.07,3.16,6.8,3.16h19.72c1.3,0,1.54,.73,1.54,2.19s-.24,2.19-1.54,2.19h-19.88Z"></path>
      <path class="cls-1" d="M169.74,36.78c-7.98,0-11.99-2.51-11.99-7.53V9.16c0-1.54,.93-1.9,2.67-1.9s2.71,.36,2.71,1.9V29.25c0,1.74,2.03,3.16,6.76,3.16h19.84c1.3,0,1.54,.73,1.54,2.15s-.24,2.23-1.54,2.23h-20Z"></path>
      <path class="cls-1" d="M199.06,35.04c0,1.54-.93,1.9-2.71,1.9s-2.67-.36-2.67-1.9V9.16c0-1.54,.93-1.9,2.67-1.9s2.71,.36,2.71,1.9v25.88Z"></path>
      <path class="cls-1" d="M269.57,35.57l-25.19-21.22v20.69c0,1.54-.93,1.9-2.71,1.9s-2.67-.36-2.67-1.9V9.16c0-1.5,.89-1.9,2.55-1.9,1.78,0,2.55,.45,3.81,1.5l24.82,21.14V9.16c0-1.54,.93-1.9,2.67-1.9s2.71,.36,2.71,1.9v25.88c0,1.58-.93,1.9-2.79,1.9-1.46,0-1.78-.2-3.2-1.38Z"></path>
      <path class="cls-1" d="M297.11,11.8v23.25c0,1.54-.93,1.9-2.71,1.9s-2.67-.36-2.67-1.9V11.8h-12.19c-1.3,0-1.58-.73-1.58-2.19s.28-2.19,1.58-2.19h29.81c1.3,0,1.58,.73,1.58,2.19s-.28,2.19-1.58,2.19h-12.23Z"></path>
    </g>
  </g>
</svg>
